<?xml version="1.0" standalone="no"?><!DOCTYPE svg PUBLIC "-//W3C//DTD SVG 1.1//EN" "http://www.w3.org/Graphics/SVG/1.1/DTD/svg11.dtd" ><svg xmlns="http://www.w3.org/2000/svg"><metadata></metadata><defs><font id="BigruixianBoldkGBV1.0" horiz-adv-x="1024"><font-face font-family="BigruixianBoldkGBV1.0" font-weight="400" font-stretch="normal" units-per-em="1024" panose-1="2 1 6 4 0 0 0 0 0 0" ascent="880" descent="-204" x-height="0" bbox="4 -139 1008 814" underline-thickness="20" underline-position="-128" unicode-range="U+0030-9891" /><missing-glyph horiz-adv-x="0"  /><glyph glyph-name="" unicode="0" d="M246 70 l0 596 l286 0 l0 -596 l-286 0 l0 0 l0 0 ZM688 4 l0 728 l-598 0 l0 -728 l598 0 l0 0 l0 0 Z" /><glyph glyph-name="" unicode="1" d="M344 4 l0 728 l-268 0 l0 -66 l112 0 l0 -662 l156 0 l0 0 l0 0 Z" /><glyph glyph-name="" unicode="2" d="M134 4 l568 0 l0 66 l-454 0 l0 268 l454 0 l0 394 l-600 0 l0 -66 l446 0 l0 -262 l-454 0 l0 -400 l40 0 l0 0 l0 0 Z" /><glyph glyph-name="" unicode="3" d="M702 4 l0 728 l-608 0 l0 -66 l454 0 l0 -266 l-380 0 l0 -66 l380 0 l0 -264 l-454 0 l0 -66 l608 0 l0 0 l0 0 Z" /><glyph glyph-name="" unicode="4" d="M692 4 l0 728 l-152 0 l0 -432 l-288 0 l0 432 l-154 0 l0 -498 l442 0 l0 -230 l152 0 l0 0 l0 0 Z" /><glyph glyph-name="" unicode="5" d="M542 334 l0 -264 l-450 0 l0 -66 l604 0 l0 396 l-450 0 l0 266 l450 0 l0 66 l-604 0 l0 -398 l450 0 l0 0 l0 0 Z" /><glyph glyph-name="" unicode="6" d="M542 70 l-296 0 l0 272 l296 0 l0 -272 l0 0 l0 0 ZM246 408 l0 258 l450 0 l0 66 l-604 0 l0 -728 l604 0 l0 404 l-450 0 l0 0 l0 0 Z" /><glyph glyph-name="" unicode="7" d="M718 732 l-624 0 l0 -66 l430 0 l-314 -662 l162 0 l346 728 l0 0 l0 0 Z" /><glyph glyph-name="" unicode="8" d="M250 402 l0 264 l298 0 l0 -264 l-298 0 l0 0 l0 0 ZM548 336 l0 -266 l-298 0 l0 266 l298 0 l0 0 l0 0 ZM702 4 l0 728 l-606 0 l0 -728 l606 0 l0 0 l0 0 Z" /><glyph glyph-name="" unicode="9" d="M246 372 l0 294 l300 0 l0 -294 l-300 0 l0 0 l0 0 ZM546 306 l0 -236 l-454 0 l0 -66 l608 0 l0 728 l-608 0 l0 -426 l454 0 l0 0 l0 0 Z" /><glyph glyph-name="" unicode="a" d="M728 4 l-148 746 l-370 0 l-142 -746 l148 0 l56 284 l248 0 l58 -284 l150 0 l0 0 l0 0 ZM506 354 l-222 0 l58 330 l104 0 l60 -330 l0 0 l0 0 Z" /><glyph glyph-name="" unicode="b" d="M722 4 l0 418 l-100 0 l0 328 l-530 0 l0 -746 l630 0 l0 0 l0 0 ZM238 684 l238 0 l0 -262 l-238 0 l0 262 l0 0 l0 0 ZM238 356 l338 0 l0 -286 l-338 0 l0 286 l0 0 l0 0 Z" /><glyph glyph-name="" unicode="c" d="M674 4 l0 66 l-428 0 l0 614 l428 0 l0 66 l-582 0 l0 -746 l582 0 l0 0 l0 0 Z" /><glyph glyph-name="" unicode="d" d="M722 4 l0 576 l-142 170 l-488 0 l0 -746 l630 0 l0 0 l0 0 ZM238 684 l258 0 l80 -106 l0 -508 l-338 0 l0 614 l0 0 l0 0 Z" /><glyph glyph-name="" unicode="e" d="M132 4 l542 0 l0 66 l-428 0 l0 278 l374 0 l0 66 l-374 0 l0 270 l428 0 l0 66 l-582 0 l0 -746 l40 0 l0 0 l0 0 Z" /><glyph glyph-name="" unicode="f" d="M92 4 l154 0 l0 328 l358 0 l0 66 l-358 0 l0 286 l428 0 l0 66 l-582 0 l0 -746 l0 0 l0 0 Z" /><glyph glyph-name="" unicode="g" d="M704 4 l0 414 l-356 0 l0 -66 l202 0 l0 -282 l-304 0 l0 614 l450 0 l0 66 l-604 0 l0 -746 l612 0 l0 0 l0 0 Z" /><glyph glyph-name="" unicode="h" d="M562 4 l114 0 l0 746 l-154 0 l0 -314 l-278 0 l0 314 l-152 0 l0 -746 l152 0 l0 366 l278 0 l0 -366 l40 0 l0 0 l0 0 Z" /><glyph glyph-name="" unicode="i" d="M328 4 l0 746 l-154 0 l0 -746 l154 0 l0 0 l0 0 Z" /><glyph glyph-name="" unicode="j" d="M494 4 l0 746 l-154 0 l0 -680 l-300 0 l0 -66 l454 0 l0 0 l0 0 Z" /><glyph glyph-name="" unicode="k" d="M710 4 l-226 352 l204 394 l-170 0 l-172 -332 l-98 0 l0 332 l-156 0 l0 -746 l156 0 l0 348 l64 0 l220 -348 l178 0 l0 0 l0 0 Z" /><glyph glyph-name="" unicode="l" d="M692 4 l0 66 l-444 0 l0 680 l-156 0 l0 -746 l600 0 l0 0 l0 0 Z" /><glyph glyph-name="" unicode="m" d="M860 4 l0 746 l-140 0 l-242 -394 l-246 394 l-140 0 l0 -746 l146 0 l0 524 l242 -386 l234 384 l0 -522 l146 0 l0 0 l0 0 Z" /><glyph glyph-name="" unicode="n" d="M722 4 l0 746 l-148 0 l0 -518 l-340 518 l-142 0 l0 -746 l148 0 l0 530 l340 -530 l142 0 l0 0 l0 0 Z" /><glyph glyph-name="" unicode="o" d="M716 4 l0 746 l-624 0 l0 -746 l624 0 l0 0 l0 0 ZM564 70 l-320 0 l0 614 l320 0 l0 -614 l0 0 l0 0 Z" /><glyph glyph-name="" unicode="p" d="M246 312 l452 0 l0 438 l-606 0 l0 -746 l154 0 l0 308 l0 0 l0 0 ZM246 378 l0 306 l298 0 l0 -306 l-298 0 l0 0 l0 0 Z" /><glyph glyph-name="" unicode="q" d="M92 4 l284 0 l30 -91 l160 0 l-28 91 l178 0 l0 746 l-624 0 l0 -746 l0 0 l0 0 ZM564 70 l-320 0 l0 614 l320 0 l0 -614 l0 0 l0 0 Z" /><glyph glyph-name="" unicode="r" d="M750 4 l-196 296 l154 0 l0 450 l-616 0 l0 -746 l154 0 l0 296 l120 0 l202 -296 l182 0 l0 0 l0 0 ZM246 366 l0 318 l308 0 l0 -318 l-308 0 l0 0 l0 0 Z" /><glyph glyph-name="" unicode="s" d="M704 4 l0 414 l-458 0 l0 266 l454 0 l0 66 l-608 0 l0 -398 l458 0 l0 -282 l-458 0 l0 -66 l612 0 l0 0 l0 0 Z" /><glyph glyph-name="" unicode="t" d="M678 684 l0 66 l-624 0 l0 -66 l234 0 l0 -680 l152 0 l0 680 l238 0 l0 0 l0 0 Z" /><glyph glyph-name="" unicode="u" d="M722 4 l0 746 l-154 0 l0 -680 l-322 0 l0 680 l-154 0 l0 -746 l630 0 l0 0 l0 0 Z" /><glyph glyph-name="" unicode="v" d="M736 750 l-164 0 l-180 -516 l-178 516 l-164 0 l260 -746 l156 0 l270 746 l0 0 l0 0 Z" /><glyph glyph-name="" unicode="w" d="M786 4 l0 746 l-146 0 l0 -680 l-128 0 l0 680 l-146 0 l0 -680 l-128 0 l0 680 l-146 0 l0 -746 l694 0 l0 0 l0 0 Z" /><glyph glyph-name="" unicode="x" d="M720 750 l-178 0 l-158 -242 l-160 242 l-184 0 l250 -372 l-250 -374 l174 0 l166 242 l160 -242 l184 0 l-248 376 l244 370 l0 0 l0 0 Z" /><glyph glyph-name="" unicode="y" d="M472 286 l272 464 l-174 0 l-172 -292 l-170 292 l-182 0 l270 -470 l0 -276 l156 0 l0 282 l0 0 l0 0 Z" /><glyph glyph-name="" unicode="z" d="M694 4 l0 66 l-432 0 l438 680 l-624 0 l0 -66 l402 0 l-438 -680 l654 0 l0 0 l0 0 Z" /><glyph glyph-name="" unicode="a" d="M114 4 l468 0 l0 544 l-438 0 l0 -66 l284 0 l0 -136 l-354 0 l0 -342 l40 0 l0 0 l0 0 ZM226 280 l202 0 l0 -210 l-202 0 l0 210 l0 0 l0 0 Z" /><glyph glyph-name="" unicode="b" d="M592 4 l0 522 l-346 0 l0 136 l-154 0 l0 -658 l500 0 l0 0 l0 0 ZM246 460 l192 0 l0 -390 l-192 0 l0 390 l0 0 l0 0 Z" /><glyph glyph-name="" unicode="c" d="M602 4 l0 66 l-362 0 l0 412 l362 0 l0 66 l-510 0 l0 -544 l510 0 l0 0 l0 0 Z" /><glyph glyph-name="" unicode="d" d="M602 4 l0 650 l-152 0 l0 -128 l-358 0 l0 -522 l510 0 l0 0 l0 0 ZM450 460 l0 -390 l-204 0 l0 390 l204 0 l0 0 l0 0 Z" /><glyph glyph-name="" unicode="e" d="M132 4 l488 0 l0 66 l-374 0 l0 158 l374 0 l0 320 l-528 0 l0 -544 l40 0 l0 0 l0 0 ZM246 294 l0 188 l222 0 l0 -188 l-222 0 l0 0 l0 0 Z" /><glyph glyph-name="" unicode="f" d="M306 594 l156 0 l0 66 l-312 0 l0 -240 l-104 0 l0 -66 l104 0 l0 -350 l156 0 l0 350 l156 0 l0 66 l-156 0 l0 174 l0 0 l0 0 Z" /><glyph glyph-name="" unicode="g" d="M620 -87 l0 631 l-528 0 l0 -386 l376 0 l0 -179 l-376 0 l0 -66 l528 0 l0 0 l0 0 ZM468 224 l-222 0 l0 254 l222 0 l0 -254 l0 0 l0 0 Z" /><glyph glyph-name="" unicode="h" d="M600 4 l0 504 l-358 0 l0 152 l-150 0 l0 -656 l150 0 l0 438 l206 0 l0 -438 l152 0 l0 0 l0 0 Z" /><glyph glyph-name="" unicode="i" d="M74 548 l0 -66 l74 0 l0 -478 l154 0 l0 544 l-228 0 l0 0 l0 0 ZM302 650 l0 132 l-154 0 l0 -132 l154 0 l0 0 l0 0 Z" /><glyph glyph-name="" unicode="j" d="M306 20 l0 528 l-154 0 l0 -492 l-130 -195 l182 0 l102 159 l0 0 l0 0 ZM306 650 l0 130 l-154 0 l0 -130 l154 0 l0 0 l0 0 Z" /><glyph glyph-name="" unicode="k" d="M638 4 l-210 290 l192 254 l-172 0 l-170 -210 l-32 0 l0 316 l-154 0 l0 -650 l154 0 l0 268 l12 0 l192 -268 l188 0 l0 0 l0 0 Z" /><glyph glyph-name="" unicode="l" d="M256 4 l0 674 l-152 0 l0 -674 l152 0 l0 0 l0 0 Z" /><glyph glyph-name="" unicode="m" d="M780 4 l0 544 l-688 0 l0 -544 l148 0 l0 478 l122 0 l0 -478 l148 0 l0 478 l122 0 l0 -478 l148 0 l0 0 l0 0 Z" /><glyph glyph-name="" unicode="n" d="M592 4 l0 544 l-500 0 l0 -544 l148 0 l0 478 l204 0 l0 -478 l148 0 l0 0 l0 0 Z" /><glyph glyph-name="" unicode="o" d="M602 4 l0 544 l-510 0 l0 -544 l510 0 l0 0 l0 0 ZM244 70 l0 412 l206 0 l0 -412 l-206 0 l0 0 l0 0 Z" /><glyph glyph-name="" unicode="p" d="M620 36 l0 512 l-528 0 l0 -647 l154 0 l0 135 l374 0 l0 0 l0 0 ZM246 102 l0 380 l222 0 l0 -380 l-222 0 l0 0 l0 0 Z" /><glyph glyph-name="" unicode="q" d="M620 -99 l0 647 l-528 0 l0 -512 l376 0 l0 -135 l152 0 l0 0 l0 0 ZM468 102 l-222 0 l0 380 l222 0 l0 -380 l0 0 l0 0 Z" /><glyph glyph-name="" unicode="r" d="M468 482 l0 66 l-376 0 l0 -544 l154 0 l0 478 l222 0 l0 0 l0 0 Z" /><glyph glyph-name="" unicode="s" d="M618 4 l0 306 l-372 0 l0 172 l368 0 l0 66 l-522 0 l0 -304 l372 0 l0 -174 l-372 0 l0 -66 l526 0 l0 0 l0 0 Z" /><glyph glyph-name="" unicode="t" d="M264 528 l0 134 l-152 0 l0 -134 l-74 0 l0 -66 l74 0 l0 -458 l340 0 l0 66 l-188 0 l0 392 l192 0 l0 66 l-192 0 l0 0 l0 0 Z" /><glyph glyph-name="" unicode="u" d="M606 4 l0 544 l-154 0 l0 -478 l-206 0 l0 478 l-154 0 l0 -544 l514 0 l0 0 l0 0 Z" /><glyph glyph-name="" unicode="v" d="M622 548 l-160 0 l-128 -326 l-120 326 l-164 0 l214 -544 l142 0 l216 544 l0 0 l0 0 Z" /><glyph glyph-name="" unicode="w" d="M742 4 l0 544 l-148 0 l0 -478 l-104 0 l0 478 l-148 0 l0 -478 l-104 0 l0 478 l-148 0 l0 -544 l652 0 l0 0 l0 0 Z" /><glyph glyph-name="" unicode="x" d="M666 4 l-210 260 l206 284 l-178 0 l-124 -162 l-126 162 l-184 0 l216 -278 l-218 -266 l186 0 l124 148 l122 -148 l186 0 l0 0 l0 0 Z" /><glyph glyph-name="" unicode="y" d="M624 -89 l0 625 l-154 0 l0 -288 l-224 0 l0 288 l-154 0 l0 -354 l378 0 l0 -205 l-378 0 l0 -66 l532 0 l0 0 l0 0 Z" /><glyph glyph-name="" unicode="z" d="M614 4 l0 66 l-348 0 l370 478 l-544 0 l0 -66 l314 0 l-376 -478 l584 0 l0 0 l0 0 Z" /><glyph glyph-name="" unicode="&#x5927;" d="M784 -67 l192 0 l-392 483 l0 142 l364 0 l0 70 l-364 0 l0 178 l-148 0 l0 -178 l-360 0 l0 -70 l360 0 l0 -144 l-390 -481 l188 0 l278 341 l272 -341 l0 0 l0 0 Z" /><glyph glyph-name="" unicode="&#x5ea6;" d="M468 526 l254 0 l0 -112 l-254 0 l0 112 l0 0 l0 0 ZM212 110 l0 588 l772 0 l0 70 l-332 0 l-20 40 l-174 0 l20 -40 l-410 0 l0 -652 l-34 -183 l146 0 l32 177 l0 0 l0 0 ZM770 220 l-166 -90 l-94 52 l-222 0 l186 -116 l-260 -133 l264 0 l124 62 l118 -62 l242 0 l-218 121 l200 118 l0 118 l-704 0 l0 -70 l530 0 l0 0 l0 0 ZM468 596 l0 60 l-144 0 l0 -60 l-82 0 l0 -70 l82 0 l0 -182 l542 0 l0 182 l96 0 l0 70 l-96 0 l0 60 l-144 0 l0 -60 l-254 0 l0 0 l0 0 Z" /><glyph glyph-name="" unicode="&#x5408;" d="M914 -63 l0 395 l-804 0 l0 -395 l804 0 l0 0 l0 0 ZM258 262 l508 0 l0 -256 l-508 0 l0 256 l0 0 l0 0 ZM514 666 l450 -156 l0 146 l-450 158 l-452 -160 l0 -142 l452 154 l0 0 l0 0 ZM158 442 l700 0 l0 70 l-700 0 l0 -70 l0 0 l0 0 Z" /><glyph glyph-name="" unicode="&#x636e;" d="M678 160 l150 0 l0 -156 l-150 0 l0 156 l0 0 l0 0 ZM688 390 l-148 0 l0 -70 l148 0 l0 -90 l-134 0 l0 -295 l398 0 l0 295 l-138 0 l0 90 l156 0 l0 70 l-156 0 l0 64 l-126 0 l0 -64 l0 0 l0 0 ZM336 332 l0 84 l-76 -44 l0 216 l82 0 l0 70 l-82 0 l0 148 l-138 0 l0 -148 l-92 0 l0 -70 l92 0 l0 -274 l-92 -52 l0 -84 l92 52 l0 -226 l-52 0 l0 -69 l190 0 l0 351 l76 46 l0 0 l0 0 ZM818 558 l-302 0 l0 162 l302 0 l0 -162 l0 0 l0 0 ZM374 790 l0 -512 l-72 -329 l142 0 l72 325 l0 214 l444 0 l0 302 l-586 0 l0 0 l0 0 Z" /><glyph glyph-name="" unicode="&#x9891;" d="M472 474 l-86 0 l0 142 l80 0 l0 70 l-80 0 l0 120 l-132 0 l0 -332 l-36 0 l0 268 l-128 0 l0 -268 l-40 0 l0 -70 l422 0 l0 70 l0 0 l0 0 ZM98 330 l-54 -194 l130 0 l54 194 l-130 0 l0 0 l0 0 ZM382 360 l-140 0 l0 -214 l40 0 l-218 -96 l0 -135 l406 179 l0 146 l-88 -46 l0 166 l0 0 l0 0 ZM652 720 l-42 -98 l-108 0 l0 -480 l132 0 l0 410 l196 0 l0 -402 l132 0 l0 472 l-202 0 l38 98 l170 0 l0 70 l-468 0 l0 -70 l152 0 l0 0 l0 0 ZM976 -71 l0 145 l-180 76 l0 322 l-128 0 l0 -326 l-172 -74 l0 -145 l246 107 l234 -105 l0 0 l0 0 Z" /><glyph glyph-name="" unicode="&#x5e73;" d="M54 230 l0 -70 l382 0 l0 -227 l148 0 l0 227 l386 0 l0 70 l-386 0 l0 492 l364 0 l0 68 l-872 0 l0 -68 l360 0 l0 -492 l-382 0 l0 0 l0 0 ZM86 648 l142 -346 l158 0 l-146 346 l-154 0 l0 0 l0 0 ZM926 648 l-160 0 l-128 -346 l160 0 l128 346 l0 0 l0 0 Z" /><glyph glyph-name="" unicode="&#x89c6;" d="M426 784 l0 -554 l138 0 l0 484 l242 0 l0 -484 l138 0 l0 554 l-518 0 l0 0 l0 0 ZM616 650 l0 -362 l-240 -355 l162 0 l216 315 l0 402 l-138 0 l0 0 l0 0 ZM996 78 l-118 0 l-18 -76 l-26 0 l0 156 l-138 0 l0 -225 l264 0 l36 145 l0 0 l0 0 ZM138 688 l164 0 l-54 118 l-162 0 l52 -118 l0 0 l0 0 ZM350 588 l0 70 l-326 0 l0 -70 l164 0 l-184 -338 l84 0 l0 -317 l148 0 l0 439 l114 216 l0 0 l0 0 ZM412 192 l-28 178 l-132 0 l24 -178 l136 0 l0 0 l0 0 Z" /><glyph glyph-name="" unicode="&#x6570;" d="M770 660 l48 0 l0 -150 l-68 -184 l-124 0 l66 -124 l-106 -269 l146 0 l48 125 l68 -125 l152 0 l-150 283 l106 280 l0 164 l28 0 l0 70 l-202 0 l10 76 l-130 0 l-60 -416 l128 0 l40 270 l0 0 l0 0 ZM52 786 l68 -132 l134 0 l-68 132 l-134 0 l0 0 l0 0 ZM536 654 l66 132 l-130 0 l-66 -132 l130 0 l0 0 l0 0 ZM400 806 l-140 0 l0 -184 l-200 0 l0 -70 l200 0 l0 -168 l140 0 l0 168 l180 0 l0 70 l-180 0 l0 184 l0 0 l0 0 ZM252 522 l-136 0 l-70 -138 l136 0 l70 138 l0 0 l0 0 ZM462 384 l136 0 l-56 138 l-134 0 l54 -138 l0 0 l0 0 ZM70 310 l0 -70 l76 0 l-82 -152 l148 -44 l-170 -111 l216 0 l98 64 l224 -72 l0 119 l-102 32 l92 66 l0 168 l-254 0 l22 44 l-136 0 l-24 -44 l-108 0 l0 0 l0 0 ZM242 154 l46 86 l152 0 l0 -44 l-108 -74 l-90 32 l0 0 l0 0 Z" /><glyph glyph-name="" unicode="&#x4f3c;" d="M304 -89 l304 207 l0 90 l-120 -86 l0 640 l-148 0 l0 -736 l-36 -27 l0 -88 l0 0 l0 0 ZM630 -83 l192 213 l166 -213 l0 241 l-80 106 l26 542 l-150 0 l-20 -524 l-134 -154 l0 -211 l0 0 l0 0 ZM508 806 l92 -358 l132 0 l-94 358 l-130 0 l0 0 l0 0 ZM152 806 l-130 -416 l70 0 l0 -457 l148 0 l0 545 l-38 0 l104 328 l-154 0 l0 0 l0 0 Z" /><glyph glyph-name="" unicode="&#x53f0;" d="M88 -61 l850 0 l0 459 l-850 0 l0 -459 l0 0 l0 0 ZM236 328 l554 0 l0 -320 l-554 0 l0 320 l0 0 l0 0 ZM968 488 l-104 254 l-166 0 l76 -184 l-532 0 l122 252 l-162 0 l-158 -322 l924 0 l0 0 l0 0 Z" /><glyph glyph-name="" unicode="&#x7edf;" d="M522 -67 l146 423 l52 0 l0 -423 l254 0 l34 219 l-108 0 l-28 -150 l-14 0 l0 354 l126 0 l-70 246 l-152 0 l48 -176 l-222 0 l96 258 l270 0 l0 70 l-170 0 l-24 56 l-164 0 l20 -56 l-200 0 l0 -70 l112 0 l-128 -328 l120 0 l-152 -423 l154 0 l0 0 l0 0 ZM188 528 l112 282 l-142 0 l-136 -352 l160 0 l-128 -254 l324 0 l0 70 l-126 0 l162 362 l-146 0 l-52 -108 l-28 0 l0 0 l0 0 ZM42 -65 l328 95 l0 72 l-328 -96 l0 -71 l0 0 l0 0 Z" /><glyph glyph-name="" unicode="&#x7cfb;" d="M316 -67 l300 0 l0 277 l368 0 l-88 212 l-168 0 l60 -142 l-414 0 l566 254 l0 152 l-276 -124 l-324 0 l98 146 l506 26 l0 72 l-864 -36 l0 -74 l172 8 l-96 -142 l-72 0 l0 -70 l448 0 l-460 -206 l0 -76 l396 0 l0 -208 l-152 0 l0 -69 l0 0 l0 0 ZM818 -67 l172 0 l-120 229 l-172 0 l120 -229 l0 0 l0 0 ZM42 -67 l168 0 l128 229 l-168 0 l-128 -229 l0 0 l0 0 Z" /><glyph glyph-name="" unicode="&#x76f8;" d="M490 790 l0 -857 l472 0 l0 857 l-472 0 l0 0 l0 0 ZM374 692 l0 118 l-144 0 l0 -118 l-184 0 l0 -70 l184 0 l0 -689 l144 0 l0 267 l84 -84 l0 212 l-84 80 l0 214 l86 0 l0 70 l-86 0 l0 0 l0 0 ZM152 -21 l52 583 l-128 0 l-48 -583 l124 0 l0 0 l0 0 ZM638 276 l0 194 l176 0 l0 -194 l-176 0 l0 0 l0 0 ZM638 540 l0 180 l176 0 l0 -180 l-176 0 l0 0 l0 0 ZM814 206 l0 -204 l-176 0 l0 204 l176 0 l0 0 l0 0 Z" /><glyph glyph-name="" unicode="&#x5e94;" d="M234 508 l88 -394 l148 0 l-90 394 l-146 0 l0 0 l0 0 ZM486 530 l66 -404 l146 0 l-72 404 l-140 0 l0 0 l0 0 ZM224 -57 l740 0 l0 69 l-118 0 l102 520 l-148 0 l-104 -520 l-472 0 l0 -69 l0 0 l0 0 ZM212 666 l756 0 l0 70 l-328 0 l-28 58 l-178 0 l22 -58 l-392 0 l0 -578 l-30 -225 l148 0 l30 209 l0 524 l0 0 l0 0 Z" /><glyph glyph-name="" unicode="&#x7528;" d="M230 518 l0 190 l206 0 l0 -190 l-206 0 l0 0 l0 0 ZM794 708 l0 -190 l-210 0 l0 190 l210 0 l0 0 l0 0 ZM230 242 l0 206 l206 0 l0 -206 l-206 0 l0 0 l0 0 ZM794 448 l0 -206 l-210 0 l0 206 l210 0 l0 0 l0 0 ZM794 172 l0 -170 l-74 0 l0 -69 l222 0 l0 845 l-860 0 l0 -682 l-30 -163 l148 0 l30 159 l0 80 l206 0 l0 -217 l148 0 l0 217 l210 0 l0 0 l0 0 Z" /><glyph glyph-name="" unicode="&#x7efc;" d="M176 498 l96 308 l-140 0 l-108 -378 l150 0 l-124 -272 l310 0 l0 70 l-136 0 l170 374 l-144 0 l-46 -102 l-28 0 l0 0 l0 0 ZM42 -73 l314 81 l0 76 l-314 -82 l0 -75 l0 0 l0 0 ZM552 682 l274 0 l0 -86 l148 0 l0 156 l-196 0 l-26 54 l-156 0 l26 -54 l-218 0 l0 -156 l148 0 l0 86 l0 0 l0 0 ZM958 472 l0 70 l-536 0 l0 -70 l536 0 l0 0 l0 0 ZM544 -67 l222 0 l0 355 l210 0 l0 70 l-570 0 l0 -70 l212 0 l0 -286 l-74 0 l0 -69 l0 0 l0 0 ZM794 218 l60 -245 l144 0 l-60 245 l-144 0 l0 0 l0 0 ZM442 224 l-80 -251 l150 0 l76 251 l-146 0 l0 0 l0 0 Z" /></font>
</defs>
</svg>
